<svg width="16" height="16" viewBox="0 0 16 16" fill="none" xmlns="http://www.w3.org/2000/svg">
  <path d="M9.88596 5.17156L6.1147 8.94278C5.85434 9.20311 5.85434 9.62524 6.1147 9.88558C6.37504 10.146 6.79716 10.146 7.0575 9.88558L10.8288 6.11437C11.6098 5.33332 11.6098 4.06699 10.8288 3.28594C10.0477 2.50489 8.78136 2.50489 8.0003 3.28594L4.22908 7.05718C2.92733 8.35891 2.92733 10.4694 4.22908 11.7712C5.53082 13.073 7.64136 13.073 8.9431 11.7712L12.7144 7.99998L13.6572 8.94278L9.88596 12.714C8.0635 14.5364 5.10872 14.5364 3.28627 12.714C1.46382 10.8916 1.46382 7.93685 3.28627 6.11437L7.0575 2.34313C8.35923 1.04138 10.4698 1.04138 11.7716 2.34313C13.0733 3.64488 13.0733 5.75542 11.7716 7.05718L8.0003 10.8284C7.2193 11.6094 5.95294 11.6094 5.17189 10.8284C4.39084 10.0474 4.39084 8.78104 5.17189 7.99998L8.9431 4.22875L9.88596 5.17156Z" fill="#303030" fill-opacity="0.64" />
</svg>