<svg width="20" height="20" viewBox="0 0 20 20" fill="none" xmlns="http://www.w3.org/2000/svg">
  <path d="M17.5762 12.5759L13.7073 8.707C13.3168 8.3164 12.6836 8.3164 12.2931 8.707L4.86516 16.1349C3.11372 14.6674 2 12.4637 2 10C2 5.58172 5.58172 2 10 2C14.4183 2 18 5.58172 18 10C18 10.9012 17.851 11.7676 17.5762 12.5759ZM10 20C15.5228 20 20 15.5228 20 10C20 4.47715 15.5228 0 10 0C4.47715 0 0 4.47715 0 10C0 15.5228 4.47715 20 10 20ZM9 8C9 9.1046 8.1046 10 7 10C5.89543 10 5 9.1046 5 8C5 6.89543 5.89543 6 7 6C8.1046 6 9 6.89543 9 8Z" fill="#0A0A0A" fill-opacity="0.45" />
</svg>